# xmcd
#
# Track frame offsets:
#	150
#	20475
#	38257
#	54983
#	77195
#	96960
#	110242
#	130391
#	151153
#	170089
#	190802
#	210798
#	227021
#	245150
#	267295
#	285884
#	304828
#
# Disc length: 4334 seconds
#
# Revision: 0
# Processed by: cddbd v1.5.1PL2 Copyright (c) Steve Scherf et al.
# Submitted via: EasyCDDAExtractor 8.1.2.3
#
DISCID=df10ec11
DTITLE=Various Artist - Hostile 2006
DYEAR=2006
DGENRE=Rap
TTITLE0=Mac Tyer - Mon rap parle à ceux ...
TTITLE1=Despo 'rutti - Arretez
TTITLE2=Soprano - Moi j'ai pas
TTITLE3=Salif - Fais c'que t'as à faire
TTITLE4=Busta Flex - J'Me Fais Rare
TTITLE5=Eloquence - Le bruit des armes
TTITLE6=Nubi - Légendaire
TTITLE7=Bakar - Ma mélancolie
TTITLE8=Jamal - Cicatrices
TTITLE9=Sefyu - Soumis
TTITLE10=Medine - Game Over
TTITLE11=Keny Arkana - Un pavé de plus
TTITLE12=Youssoupha - Scénario
TTITLE13=James Izmad - Attentat inattendu
TTITLE14=TLF Feat. Rohff - Principes
TTITLE15=Nessbeal - Emmuré vivant
TTITLE16=Doc (2BAL) - Réflexion
EXTD=
EXTT0=
EXTT1=
EXTT2=
EXTT3=
EXTT4=
EXTT5=
EXTT6=
EXTT7=
EXTT8=
EXTT9=
EXTT10=
EXTT11=
EXTT12=
EXTT13=
EXTT14=
EXTT15=
EXTT16=
PLAYORDER=
